<?xml version="1.0" encoding="UTF-8" standalone="no"?>
<!-- Created with Inkscape (http://www.inkscape.org/) -->

<svg
   xmlns:dc="http://purl.org/dc/elements/1.1/"
   xmlns:cc="http://creativecommons.org/ns#"
   xmlns:rdf="http://www.w3.org/1999/02/22-rdf-syntax-ns#"
   xmlns:svg="http://www.w3.org/2000/svg"
   xmlns="http://www.w3.org/2000/svg"
   xmlns:sodipodi="http://sodipodi.sourceforge.net/DTD/sodipodi-0.dtd"
   xmlns:inkscape="http://www.inkscape.org/namespaces/inkscape"
   width="74.685799mm"
   height="149.67119mm"
   viewBox="0 0 74.685797 149.67119"
   version="1.1"
   id="svg8"
   sodipodi:docname="icon-sword.svg"
   inkscape:version="0.92.1 r15371"
   inkscape:export-filename="C:\Users\znich\Pictures\Vectors\dungeon-crawler\black-sword.png"
   inkscape:export-xdpi="96"
   inkscape:export-ydpi="96">
  <defs
     id="defs2" />
  <sodipodi:namedview
     id="base"
     pagecolor="#ffffff"
     bordercolor="#666666"
     borderopacity="1.0"
     inkscape:pageopacity="0.0"
     inkscape:pageshadow="2"
     inkscape:zoom="0.98994949"
     inkscape:cx="197.73022"
     inkscape:cy="261.42079"
     inkscape:document-units="mm"
     inkscape:current-layer="g4496"
     showgrid="false"
     fit-margin-top="0"
     fit-margin-left="0"
     fit-margin-right="0"
     fit-margin-bottom="0"
     inkscape:window-width="1920"
     inkscape:window-height="1051"
     inkscape:window-x="-9"
     inkscape:window-y="-9"
     inkscape:window-maximized="1" />
  <metadata
     id="metadata5">
    <rdf:RDF>
      <cc:Work
         rdf:about="">
        <dc:format>image/svg+xml</dc:format>
        <dc:type
           rdf:resource="http://purl.org/dc/dcmitype/StillImage" />
        <dc:title></dc:title>
      </cc:Work>
    </rdf:RDF>
  </metadata>
  <g
     inkscape:label="Layer 1"
     inkscape:groupmode="layer"
     id="layer1"
     transform="translate(-62.060409,-47.378281)">
    <g
       id="g4496"
       transform="translate(-15.50163,-21.381564)">
      <g
         id="g4542"
         transform="rotate(-45,93.980366,156.04274)">
        <path
           inkscape:connector-curvature="0"
           id="path4514"
           d="m 84.608995,214.53514 c 0.0883,-0.23018 0.1606,-3.14721 0.1606,-6.48229 v -6.06378 h 2.98979 c 1.97262,0 3.09781,-0.10801 3.30729,-0.3175 0.20948,-0.20948 0.3175,-1.33467 0.3175,-3.30729 v -2.98979 h 2.98979 c 1.97262,0 3.09781,-0.10802 3.3073,-0.3175 0.20948,-0.20948 0.3175,-1.33467 0.3175,-3.30729 v -2.98979 h 3.042705 3.04271 v 2.98979 c 0,1.97262 0.10802,3.09781 0.3175,3.30729 0.22916,0.22916 2.06963,0.3175 6.61459,0.3175 h 6.29708 v 2.98979 c 0,1.97262 0.10802,3.09781 0.3175,3.30729 0.45096,0.45096 12.67237,0.45096 13.12333,0 0.45096,-0.45096 0.45096,-12.67237 0,-13.12333 -0.20948,-0.20948 -1.33467,-0.3175 -3.30729,-0.3175 h -2.98979 v -2.98979 c 0,-1.97262 -0.10802,-3.09781 -0.3175,-3.30729 -0.20948,-0.20949 -1.33467,-0.3175 -3.30729,-0.3175 h -2.98979 v -3.0144 c 0,-2.50467 0.0708,-3.04156 0.41851,-3.17501 0.23018,-0.0883 1.6462,-0.16059 3.14669,-0.16059 2.24367,0 2.7567,-0.0743 2.88878,-0.41852 0.0883,-0.23018 0.1606,-1.65893 0.1606,-3.175 v -2.75648 h 2.75649 c 1.51606,0 2.94481,-0.0723 3.175,-0.1606 0.34595,-0.13276 0.41851,-0.65702 0.41851,-3.02381 0,-3.73875 -0.044,-3.69476 3.69476,-3.69476 2.3668,0 2.89105,-0.0726 3.02381,-0.41852 0.0883,-0.23018 0.1606,-1.65893 0.1606,-3.175 v -2.75648 h 2.75648 c 1.51607,0 2.94482,-0.0723 3.175,-0.1606 0.34596,-0.13276 0.41852,-0.65701 0.41852,-3.02381 0,-3.73875 -0.044,-3.69476 3.69476,-3.69476 2.36679,0 2.89105,-0.0726 3.02381,-0.41851 0.0883,-0.23019 0.16059,-1.65894 0.16059,-3.175 v -2.75649 h 2.75649 c 1.51607,0 2.94482,-0.0723 3.175,-0.1606 0.34595,-0.13275 0.41852,-0.65701 0.41852,-3.02381 0,-2.25014 0.089,-2.95224 0.41577,-3.27898 0.32675,-0.32675 1.02884,-0.41578 3.27898,-0.41578 2.3668,0 2.89106,-0.0726 3.02381,-0.41851 0.0883,-0.23018 0.1606,-1.65893 0.1606,-3.175 v -2.75649 h 2.75649 c 1.51606,0 2.94481,-0.0723 3.175,-0.1606 0.3713,-0.14248 0.41851,-1.2766 0.41851,-10.05417 v -9.89356 h -9.89357 c -8.77756,0 -9.91168,0.0472 -10.05416,0.41851 -0.0883,0.23018 -0.1606,1.65893 -0.1606,3.175 v 2.75649 h -2.75649 c -1.51606,0 -2.94481,0.0723 -3.175,0.1606 -0.34595,0.13275 -0.41851,0.65701 -0.41851,3.0238 0,3.73875 0.044,3.69476 -3.69476,3.69476 -2.3668,0 -2.89106,0.0726 -3.02381,0.41852 -0.0883,0.23018 -0.1606,1.65893 -0.1606,3.175 v 2.75649 h -2.75648 c -1.51607,0 -2.94482,0.0723 -3.175,0.1606 -0.34596,0.13275 -0.41852,0.65701 -0.41852,3.0238 0,3.73875 0.044,3.69476 -3.69476,3.69476 -2.3668,0 -2.89105,0.0726 -3.02381,0.41852 -0.0883,0.23018 -0.1606,1.65893 -0.1606,3.175 v 2.75648 h -2.75648 c -1.51607,0 -2.94482,0.0723 -3.175,0.1606 -0.34596,0.13276 -0.41852,0.65701 -0.41852,3.02381 0,3.73875 0.044,3.69476 -3.69476,3.69476 -2.36679,0 -2.89105,0.0726 -3.0238,0.41852 -0.0883,0.23018 -0.1606,1.65893 -0.1606,3.175 v 2.75648 h -2.75649 c -1.51607,0 -2.94482,0.0723 -3.175,0.1606 -0.34419,0.13208 -0.41851,0.64511 -0.41851,2.88878 0,1.50049 -0.0723,2.91651 -0.1606,3.14669 -0.13345,0.34774 -0.67034,0.41851 -3.175,0.41851 h -3.014405 v -2.98979 c 0,-1.97261 -0.10802,-3.09781 -0.3175,-3.30729 -0.20949,-0.20948 -1.33468,-0.3175 -3.3073,-0.3175 h -2.98979 v -2.98979 c 0,-1.97262 -0.10802,-3.09781 -0.3175,-3.30729 -0.22901,-0.22901 -2.05787,-0.3175 -6.56167,-0.3175 -4.50379,0 -6.33266,0.0885 -6.56166,0.3175 -0.22901,0.229 -0.3175,2.05787 -0.3175,6.56166 0,4.5038 0.0885,6.33266 0.3175,6.56167 0.20948,0.20948 1.33467,0.3175 3.30729,0.3175 h 2.98979 v 6.29709 c 0,4.54495 0.0883,6.38542 0.3175,6.61458 0.20948,0.20948 1.33468,0.3175 3.30729,0.3175 h 2.98979 v 3.04271 3.04271 h -2.89151 c -3.77461,0 -3.72307,-0.0515 -3.72307,3.72306 v 2.89152 h -2.89152 c -3.77461,0 -3.72306,-0.0515 -3.72306,3.72307 v 2.89151 h -6.06378 c -3.33508,0 -6.25211,0.0723 -6.48229,0.1606 -0.37131,0.14249 -0.41852,1.2766 -0.41852,10.05417 v 9.89357 h 9.89357 c 8.77757,0 9.91168,-0.0472 10.05417,-0.41852 z"
           style="fill:#333333;stroke-width:1" />
        <path
           inkscape:connector-curvature="0"
           id="path4512"
           d="m 84.608995,214.53514 c 0.0883,-0.23018 0.1606,-3.14721 0.1606,-6.48229 v -6.06378 h 2.98979 c 1.97262,0 3.09781,-0.10801 3.30729,-0.3175 0.20948,-0.20948 0.3175,-1.33467 0.3175,-3.30729 v -2.98979 h 2.98979 c 1.97262,0 3.09781,-0.10802 3.3073,-0.3175 0.20948,-0.20948 0.3175,-1.33467 0.3175,-3.30729 v -2.98979 h 3.042705 3.04271 v 2.98979 c 0,1.97262 0.10802,3.09781 0.3175,3.30729 0.22916,0.22916 2.06963,0.3175 6.61459,0.3175 h 6.29708 v 2.98979 c 0,1.97262 0.10802,3.09781 0.3175,3.30729 0.45096,0.45096 12.67237,0.45096 13.12333,0 0.45096,-0.45096 0.45096,-12.67237 0,-13.12333 -0.20948,-0.20948 -1.33467,-0.3175 -3.30729,-0.3175 h -2.98979 v -2.98979 c 0,-1.97262 -0.10802,-3.09781 -0.3175,-3.30729 -0.20948,-0.20949 -1.33467,-0.3175 -3.30729,-0.3175 h -2.98979 v -3.0144 c 0,-2.50467 0.0708,-3.04156 0.41851,-3.17501 0.23018,-0.0883 1.6462,-0.16059 3.14669,-0.16059 2.24367,0 2.7567,-0.0743 2.88878,-0.41852 0.0883,-0.23018 0.1606,-1.65893 0.1606,-3.175 v -2.75648 h 2.75649 c 1.51606,0 2.94481,-0.0723 3.175,-0.1606 0.34595,-0.13276 0.41851,-0.65702 0.41851,-3.02381 0,-3.73875 -0.044,-3.69476 3.69476,-3.69476 2.3668,0 2.89105,-0.0726 3.02381,-0.41852 0.0883,-0.23018 0.1606,-1.65893 0.1606,-3.175 v -2.75648 h 2.75648 c 1.51607,0 2.94482,-0.0723 3.175,-0.1606 0.34596,-0.13276 0.41852,-0.65701 0.41852,-3.02381 0,-3.73875 -0.044,-3.69476 3.69476,-3.69476 2.36679,0 2.89105,-0.0726 3.02381,-0.41851 0.0883,-0.23019 0.16059,-1.65894 0.16059,-3.175 v -2.75649 h 2.75649 c 1.51607,0 2.94482,-0.0723 3.175,-0.1606 0.34595,-0.13275 0.41852,-0.65701 0.41852,-3.02381 0,-2.25014 0.089,-2.95224 0.41577,-3.27898 0.32675,-0.32675 1.02884,-0.41578 3.27898,-0.41578 2.3668,0 2.89106,-0.0726 3.02381,-0.41851 0.0883,-0.23018 0.1606,-1.65893 0.1606,-3.175 v -2.75649 h 2.75649 c 1.51606,0 2.94481,-0.0723 3.175,-0.1606 0.3713,-0.14248 0.41851,-1.2766 0.41851,-10.05417 v -9.89356 h -9.89357 c -8.77756,0 -9.91168,0.0472 -10.05416,0.41851 -0.0883,0.23018 -0.1606,1.65893 -0.1606,3.175 v 2.75649 h -2.75649 c -1.51606,0 -2.94481,0.0723 -3.175,0.1606 -0.34595,0.13275 -0.41851,0.65701 -0.41851,3.0238 0,3.73875 0.044,3.69476 -3.69476,3.69476 -2.3668,0 -2.89106,0.0726 -3.02381,0.41852 -0.0883,0.23018 -0.1606,1.65893 -0.1606,3.175 v 2.75649 h -2.75648 c -1.51607,0 -2.94482,0.0723 -3.175,0.1606 -0.34596,0.13275 -0.41852,0.65701 -0.41852,3.0238 0,3.73875 0.044,3.69476 -3.69476,3.69476 -2.3668,0 -2.89105,0.0726 -3.02381,0.41852 -0.0883,0.23018 -0.1606,1.65893 -0.1606,3.175 v 2.75648 h -2.75648 c -1.51607,0 -2.94482,0.0723 -3.175,0.1606 -0.34596,0.13276 -0.41852,0.65701 -0.41852,3.02381 0,3.73875 0.044,3.69476 -3.69476,3.69476 -2.36679,0 -2.89105,0.0726 -3.0238,0.41852 -0.0883,0.23018 -0.1606,1.65893 -0.1606,3.175 v 2.75648 h -2.75649 c -1.51607,0 -2.94482,0.0723 -3.175,0.1606 -0.34419,0.13208 -0.41851,0.64511 -0.41851,2.88878 0,1.50049 -0.0723,2.91651 -0.1606,3.14669 -0.13345,0.34774 -0.67034,0.41851 -3.175,0.41851 h -3.014405 v -2.98979 c 0,-1.97261 -0.10802,-3.09781 -0.3175,-3.30729 -0.20949,-0.20948 -1.33468,-0.3175 -3.3073,-0.3175 h -2.98979 v -2.98979 c 0,-1.97262 -0.10802,-3.09781 -0.3175,-3.30729 -0.22901,-0.22901 -2.05787,-0.3175 -6.56167,-0.3175 -4.50379,0 -6.33266,0.0885 -6.56166,0.3175 -0.22901,0.229 -0.3175,2.05787 -0.3175,6.56166 0,4.5038 0.0885,6.33266 0.3175,6.56167 0.20948,0.20948 1.33467,0.3175 3.30729,0.3175 h 2.98979 v 6.29709 c 0,4.54495 0.0883,6.38542 0.3175,6.61458 0.20948,0.20948 1.33468,0.3175 3.30729,0.3175 h 2.98979 v 3.04271 3.04271 h -2.89151 c -3.77461,0 -3.72307,-0.0515 -3.72307,3.72306 v 2.89152 h -2.89152 c -3.77461,0 -3.72306,-0.0515 -3.72306,3.72307 v 2.89151 h -6.06378 c -3.33508,0 -6.25211,0.0723 -6.48229,0.1606 -0.37131,0.14249 -0.41852,1.2766 -0.41852,10.05417 v 9.89357 h 9.89357 c 8.77757,0 9.91168,-0.0472 10.05417,-0.41852 z m 26.772865,-39.69417 c -0.34764,-0.1334 -0.41851,-0.66959 -0.41851,-3.1666 v -3.00601 l -3.10886,-0.0745 -3.10885,-0.0745 v -3.04271 -3.04271 h 3.04271 3.04271 l 0.0745,3.10053 0.0745,3.10053 3.10053,0.0745 3.10053,0.0745 0.0759,2.76024 c 0.0418,1.51813 0.0157,2.91712 -0.0578,3.10886 -0.0983,0.25611 -0.83232,0.34861 -2.76627,0.34861 -1.44788,0 -2.82083,-0.0723 -3.05102,-0.1606 z m 6.2539,-9.6868 -0.0745,-3.10053 -3.10053,-0.0745 -3.10053,-0.0745 v -3.04271 -3.04271 h 3.04271 3.04271 l 0.0745,3.10053 0.0745,3.10053 3.10053,0.0745 3.10053,0.0745 0.0759,2.76024 c 0.0418,1.51813 0.0142,2.92103 -0.0612,3.11756 -0.10635,0.27715 -0.80616,0.34054 -3.11864,0.28248 l -2.98153,-0.0749 z m 6.61458,-6.61459 -0.0745,-3.10053 -3.10053,-0.0745 -3.10053,-0.0745 v -3.04271 -3.0427 h 3.04271 3.04271 l 0.0745,3.10053 0.0745,3.10052 3.10052,0.0745 3.10054,0.0745 0.0759,2.76024 c 0.0418,1.51812 0.0142,2.92103 -0.0612,3.11756 -0.10636,0.27715 -0.80617,0.34053 -3.11865,0.28247 l -2.98152,-0.0749 z m 6.61458,-6.61458 -0.0745,-3.10053 -3.10053,-0.0745 -3.10053,-0.0745 v -3.04271 -3.04271 h 3.04271 3.04271 l 0.0745,3.10053 0.0745,3.10053 3.10053,0.0745 3.10053,0.0745 0.0759,2.76024 c 0.0418,1.51813 0.0142,2.92104 -0.0612,3.11757 -0.10635,0.27714 -0.80616,0.34053 -3.11865,0.28247 l -2.98152,-0.0749 z m 6.61459,-6.61459 -0.0745,-3.10052 -3.10053,-0.0745 -3.10053,-0.0745 v -3.04271 -3.04271 h 3.04271 3.0427 l 0.0745,3.10053 0.0745,3.10053 3.10052,0.0745 3.10053,0.0745 0.0759,2.76024 c 0.0418,1.51813 0.0142,2.92103 -0.0612,3.11756 -0.10635,0.27715 -0.80616,0.34053 -3.11864,0.28247 l -2.98152,-0.0748 z m 6.61458,-6.61458 -0.0745,-3.10053 -3.10053,-0.0745 -3.10053,-0.0745 v -3.04271 -3.04271 h 3.04271 3.04271 l 0.0745,3.10053 0.0745,3.10053 3.10053,0.0745 3.10053,0.0745 0.0759,2.76024 c 0.0418,1.51813 0.0142,2.92104 -0.0612,3.11757 -0.10635,0.27714 -0.80616,0.34053 -3.11865,0.28247 l -2.98152,-0.0749 z m 6.61458,-6.61458 -0.0745,-3.10053 -3.10053,-0.0745 -3.10053,-0.0745 v -3.04271 -3.04271 h 3.04271 3.04271 l 0.0745,3.10053 0.0745,3.10053 3.10053,0.0745 3.10053,0.0745 0.0759,2.76024 c 0.0418,1.51813 0.0142,2.92104 -0.0612,3.11757 -0.10635,0.27714 -0.80616,0.34053 -3.11864,0.28247 l -2.98153,-0.0749 z m 6.61459,-6.61459 -0.0745,-3.10053 -3.10053,-0.0745 -3.10053,-0.0745 v -3.04271 -3.0427 h 3.04271 3.0427 l 0.0745,3.10053 0.0745,3.10052 3.10053,0.0745 3.10053,0.0745 0.0759,2.76025 c 0.0418,1.51813 0.0142,2.92103 -0.0612,3.11756 -0.10635,0.27715 -0.80616,0.34053 -3.11864,0.28247 l -2.98152,-0.0749 z"
           style="fill:#4d4d4d;stroke-width:1" />
        <path
           inkscape:connector-curvature="0"
           id="path4510"
           d="m 84.566535,208.40522 0.0708,-6.54844 3.24114,-0.0743 3.24115,-0.0743 v -2.98165 c 0,-1.96628 0.10812,-3.08977 0.3175,-3.29914 0.20938,-0.20938 1.33286,-0.3175 3.29915,-0.3175 h 2.98164 l 0.0743,-3.24115 0.0743,-3.24115 3.232945,-0.0742 3.23294,-0.0742 0.0744,3.24922 0.0744,3.24923 6.48229,0.13229 6.48229,0.13229 0.13229,3.175 0.13229,3.175 h 6.4823 6.48229 v -6.48229 -6.4823 l -3.175,-0.13229 -3.175,-0.13229 -0.13229,-3.175 -0.13229,-3.175 -3.24115,-0.0743 -3.24115,-0.0743 v -3.01292 c 0,-1.65711 -0.0723,-3.20126 -0.1606,-3.43144 -0.14123,-0.36805 0.24328,-0.41852 3.18866,-0.41852 h 3.34925 l -0.044,-3.18876 c -0.0242,-1.75382 0.023,-3.25575 0.10488,-3.33763 0.0819,-0.0819 1.5838,-0.12906 3.33762,-0.10487 l 3.18877,0.044 v -3.32095 -3.32095 h 3.32094 3.32095 l -0.044,-3.18876 c -0.0242,-1.75382 0.023,-3.25575 0.10487,-3.33763 0.0819,-0.0819 1.58381,-0.12906 3.33763,-0.10487 l 3.18876,0.044 v -3.32095 -3.32094 h 3.32082 3.32095 l -0.0435,-3.15201 c -0.0415,-3.01107 0.082,-3.88123 0.51314,-3.61477 0.1077,0.0666 1.49846,0.14366 3.09057,0.17132 l 2.89475,0.0503 0.13229,-3.37366 0.13229,-3.37366 3.25499,0.0455 3.255,0.0455 -0.0442,-3.20261 c -0.0243,-1.76143 0.0236,-3.27042 0.10651,-3.3533 0.18869,-0.18869 5.89149,-0.10963 6.4087,0.0888 0.32671,0.12538 0.38044,-1.25927 0.38044,-9.80419 v -9.95018 h -9.95018 c -8.54492,0 -9.92957,0.0537 -9.80419,0.38044 0.19847,0.51721 0.27753,6.22001 0.0889,6.40869 -0.0829,0.0829 -1.59187,0.13082 -3.35331,0.10652 l -3.20261,-0.0442 0.0453,3.25499 0.0453,3.25499 -3.35225,0.0742 -3.35226,0.0742 0.0434,3.144 c 0.0239,1.7292 -0.0179,3.24365 -0.0928,3.36543 -0.0749,0.12179 -1.52744,0.1619 -3.22793,0.0891 -1.7005,-0.0728 -3.14095,-0.0827 -3.201,-0.022 -0.06,0.0606 -0.10919,1.57869 -0.10919,3.37344 v 3.2632 h -3.32094 -3.32095 l 0.044,3.18876 c 0.0242,1.75382 -0.023,3.25575 -0.10487,3.33763 -0.0819,0.0819 -1.58381,0.12906 -3.33763,0.10487 l -3.18876,-0.044 v 3.32095 3.32094 h -3.32095 -3.32095 l 0.044,3.18877 c 0.0242,1.75382 -0.023,3.25575 -0.10487,3.33762 -0.0819,0.0819 -1.58381,0.12907 -3.33763,0.10488 l -3.18876,-0.044 2.6e-4,3.2548 2.7e-4,3.2548 -3.1092,-0.0778 c -1.710065,-0.0428 -3.254215,-0.12689 -3.431445,-0.18688 -0.22298,-0.0755 -0.34522,-1.07017 -0.39687,-3.22947 l -0.0745,-3.12042 -3.175,-0.1323 -3.175,-0.13229 -0.13229,-3.175 -0.13229,-3.175 h -6.4823 -6.48229 v 6.48229 6.4823 l 3.175,0.13229 3.175,0.13229 0.13229,6.48229 0.1323,6.48229 3.24922,0.0744 3.24922,0.0743 -0.0742,3.23294 -0.0742,3.23294 -3.175,0.13229 -3.175,0.13229 -0.1323,3.175 -0.13229,3.175 -3.175,0.13229 -3.175,0.13229 -0.13229,3.175 -0.13229,3.17501 -6.54844,0.0708 -6.54844,0.0708 v 9.91725 9.91726 h 9.91726 9.91725 z m 20.046815,-23.21719 v -3.04271 h 6.35 6.35 v 3.04271 3.04271 h -6.35 -6.35 z m -6.614585,-6.61458 v -3.04271 h 3.042705 3.04271 v 3.04271 3.04271 h -3.04271 -3.042705 z m 13.383095,-3.73248 c -0.34764,-0.1334 -0.41851,-0.66959 -0.41851,-3.1666 v -3.00601 l -3.10886,-0.0745 -3.10885,-0.0745 v -3.04271 -3.04271 h 3.04271 3.04271 l 0.0745,3.10053 0.0745,3.10053 3.10053,0.0745 3.10053,0.0745 0.0759,2.76024 c 0.0418,1.51813 0.0157,2.91712 -0.0578,3.10886 -0.0983,0.25611 -0.83232,0.34861 -2.76627,0.34861 -1.44788,0 -2.82083,-0.0723 -3.05102,-0.1606 z m -19.997685,-3.0144 v -3.175 h 3.04271 3.04271 v 3.175 3.175 h -3.04271 -3.04271 z m 26.251585,-6.6724 -0.0745,-3.10053 -3.10053,-0.0745 -3.10053,-0.0745 v -3.04271 -3.04271 h 3.04271 3.04271 l 0.0745,3.10053 0.0745,3.10053 3.10053,0.0745 3.10053,0.0745 0.0759,2.76024 c 0.0418,1.51813 0.0142,2.92103 -0.0612,3.11756 -0.10635,0.27715 -0.80616,0.34054 -3.11864,0.28248 l -2.98153,-0.0749 z m 6.61458,-6.61459 -0.0745,-3.10053 -3.10053,-0.0745 -3.10053,-0.0745 v -3.04271 -3.0427 h 3.04271 3.04271 l 0.0745,3.10053 0.0745,3.10052 3.10052,0.0745 3.10054,0.0745 0.0759,2.76024 c 0.0418,1.51812 0.0142,2.92103 -0.0612,3.11756 -0.10636,0.27715 -0.80617,0.34053 -3.11865,0.28247 l -2.98152,-0.0749 z m 6.61458,-6.61458 -0.0745,-3.10053 -3.10053,-0.0745 -3.10053,-0.0745 v -3.04271 -3.04271 h 3.04271 3.04271 l 0.0745,3.10053 0.0745,3.10053 3.10053,0.0745 3.10053,0.0745 0.0759,2.76024 c 0.0418,1.51813 0.0142,2.92104 -0.0612,3.11757 -0.10635,0.27714 -0.80616,0.34053 -3.11864,0.28247 l -2.98153,-0.0749 z m 6.61459,-6.61459 -0.0745,-3.10052 -3.10053,-0.0745 -3.10053,-0.0745 v -3.04271 -3.04271 h 3.04271 3.04271 l 0.0745,3.10053 0.0745,3.10053 3.10052,0.0745 3.10053,0.0745 0.0759,2.76024 c 0.0418,1.51813 0.0142,2.92103 -0.0612,3.11756 -0.10635,0.27715 -0.80616,0.34053 -3.11864,0.28247 l -2.98152,-0.0748 z m 6.61458,-6.61458 -0.0745,-3.10053 -3.10053,-0.0745 -3.10053,-0.0745 v -3.04271 -3.04271 h 3.04271 3.04271 l 0.0745,3.10053 0.0745,3.10053 3.10053,0.0745 3.10053,0.0745 0.0759,2.76024 c 0.0418,1.51813 0.0142,2.92104 -0.0612,3.11757 -0.10635,0.27714 -0.80616,0.34053 -3.11865,0.28247 l -2.98152,-0.0749 z m 6.61458,-6.61458 -0.0745,-3.10053 -3.10053,-0.0745 -3.10053,-0.0745 v -3.04271 -3.04271 h 3.04271 3.04271 l 0.0745,3.10053 0.0745,3.10053 3.10053,0.0745 3.10053,0.0745 0.0759,2.76024 c 0.0418,1.51813 0.0142,2.92104 -0.0612,3.11757 -0.10635,0.27714 -0.80616,0.34053 -3.11864,0.28247 l -2.98153,-0.0749 z m 6.61459,-6.61459 -0.0745,-3.10053 -3.10053,-0.0745 -3.10053,-0.0745 v -3.04271 -3.0427 h 3.04271 3.04271 l 0.0745,3.10053 0.0745,3.10052 3.10052,0.0745 3.10053,0.0745 0.0759,2.76025 c 0.0418,1.51813 0.0142,2.92103 -0.0612,3.11756 -0.10635,0.27715 -0.80616,0.34053 -3.11864,0.28247 l -2.98152,-0.0749 z"
           style="fill:#000000;stroke-width:1" />
        <path
           inkscape:connector-curvature="0"
           id="path4506"
           d="m 84.566535,208.40522 0.0708,-6.54844 3.24114,-0.0743 3.24115,-0.0743 v -2.98165 c 0,-1.96628 0.10812,-3.08977 0.3175,-3.29914 0.20938,-0.20938 1.33286,-0.3175 3.29915,-0.3175 h 2.98164 l 0.0743,-3.24115 0.0743,-3.24115 3.232945,-0.0742 3.23294,-0.0742 0.0744,3.24922 0.0744,3.24923 6.48229,0.13229 6.48229,0.13229 0.13229,3.175 0.13229,3.175 h 6.4823 6.48229 v -6.48229 -6.4823 l -3.175,-0.13229 -3.175,-0.13229 -0.13229,-3.175 -0.13229,-3.175 -3.23307,-0.0742 -3.23307,-0.0742 -0.0742,-3.23306 -0.0742,-3.23307 -6.25537,-0.0709 c -4.76937,-0.054 -6.32382,-0.15332 -6.54346,-0.41798 -0.18485,-0.22273 -0.31356,-2.56753 -0.3592,-6.54371 l -0.0711,-6.19661 -3.175,-0.13229 -3.175005,-0.13229 -0.13229,-3.175 -0.13229,-3.175 -3.175,-0.1323 -3.175,-0.13229 -0.13229,-3.175 -0.13229,-3.175 h -6.4823 -6.48229 v 6.48229 6.4823 l 3.175,0.13229 3.175,0.13229 0.13229,6.48229 0.1323,6.48229 3.24922,0.0744 3.24922,0.0743 -0.0742,3.23294 -0.0742,3.23294 -3.175,0.13229 -3.175,0.13229 -0.1323,3.175 -0.13229,3.175 -3.175,0.13229 -3.175,0.13229 -0.13229,3.175 -0.13229,3.17501 -6.54844,0.0708 -6.54844,0.0708 v 9.91725 9.91726 h 9.91726 9.91725 z m 20.046815,-23.21719 v -3.04271 h 6.35 6.35 v 3.04271 3.04271 h -6.35 -6.35 z m -6.614585,-6.61458 v -3.04271 h 3.042705 3.04271 v 3.04271 3.04271 h -3.04271 -3.042705 z m -6.61459,-6.74688 v -3.175 h 3.04271 3.04271 v 3.175 3.175 h -3.04271 -3.04271 z m 32.543755,0.13229 v -3.0427 h -3.04271 -3.0427 v 3.0427 3.04271 h 3.0427 3.04271 z m 6.61459,-6.61458 v -3.04271 h -3.04271 -3.04271 v 3.04271 3.04271 h 3.04271 3.04271 z m 6.61458,-6.61458 v -3.04271 h -3.04271 -3.04271 v 3.04271 3.0427 h 3.04271 3.04271 z m -26.45833,0 v -3.04271 h -3.04271 -3.04271 v 3.04271 3.0427 h 3.04271 3.04271 z m 33.07292,-6.61459 v -3.04271 h -3.04271 -3.04271 v 3.04271 3.04271 h 3.04271 3.04271 z m -26.45834,0 v -3.04271 h -3.04271 -3.04271 v 3.04271 3.04271 h 3.04271 3.04271 z m 33.07292,-6.61458 v -3.04271 h -3.04271 -3.04271 v 3.04271 3.04271 h 3.04271 3.04271 z m -26.45834,0 v -3.04271 h -3.04271 -3.0427 v 3.04271 3.04271 h 3.0427 3.04271 z m 32.96374,-3.54983 c 0.06,-0.0606 0.10918,-1.45962 0.10918,-3.10885 v -2.99861 h -3.04271 -3.0427 v 3.0262 3.0262 l 2.93352,0.0827 c 1.61345,0.0455 2.98266,0.0331 3.04271,-0.0276 z m -26.34915,-3.06476 v -3.0427 h -3.04271 -3.04271 v 3.0427 3.04271 h 3.04271 3.04271 z m 33.07292,-6.61458 v -3.04271 h -3.04271 -3.04271 v 3.04271 3.04271 h 3.04271 3.04271 z m -26.45834,0.0165 v -3.02621 l -2.93353,-0.0827 c -1.61344,-0.0455 -2.98266,-0.033 -3.04271,0.0276 -0.0601,0.0606 -0.10918,1.45962 -0.10918,3.10886 v 2.99861 h 3.04271 3.04271 v -3.0262 z m 33.3375,-13.21736 v -9.95018 h -9.95018 c -8.96456,0 -9.93428,0.0415 -9.78958,0.41851 0.0883,0.23018 0.16059,1.64211 0.16059,3.13761 v 2.71909 l 6.41615,0.23583 6.41615,0.23583 0.23583,6.41615 0.23583,6.41615 h 2.71909 c 1.4955,0 2.90742,0.0723 3.13761,0.1606 0.37706,0.14469 0.41851,-0.82503 0.41851,-9.78959 z m -26.72292,6.58628 v -3.04271 h -3.0427 -3.04271 v 3.04271 3.04271 h 3.04271 3.0427 z m 6.61459,-6.61459 v -3.04271 h -3.04271 -3.04271 v 3.04271 3.04271 h 3.04271 3.04271 z"
           style="fill:#68807e;stroke-width:1" />
        <path
           inkscape:connector-curvature="0"
           id="path4504"
           d="m 84.293635,208.33931 -0.0791,-6.61482 h 3.13501 c 2.08557,0 3.2413,-0.10628 3.45252,-0.3175 0.20948,-0.20948 0.3175,-1.33467 0.3175,-3.30729 0,-2.65757 0.0514,-2.99372 0.46302,-3.02514 0.25466,-0.0194 1.29646,-0.0586 2.3151,-0.087 1.01865,-0.0284 2.23904,-0.0721 2.71198,-0.097 l 0.8599,-0.0452 v -2.88877 c 0,-1.58883 0.0723,-3.07711 0.1606,-3.3073 0.13446,-0.35039 0.69291,-0.41851 3.431185,-0.41851 h 3.27059 l 0.0745,-3.10885 0.0745,-3.10886 6.41614,-0.0709 6.41615,-0.0709 v -3.30259 -3.30258 h -6.16479 c -4.44206,0 -6.25352,-0.0887 -6.48229,-0.3175 -0.22876,-0.22876 -0.3175,-2.03848 -0.3175,-6.47439 v -6.15689 l -3.37344,-0.074 -3.373445,-0.074 -0.0742,-3.23307 -0.0742,-3.23306 -3.23307,-0.0742 -3.23306,-0.0742 -0.0743,-3.24115 -0.0743,-3.24115 h -6.34186 -6.34186 v 6.34186 6.34186 l 3.24115,0.0743 3.24115,0.0743 0.0708,6.54843 0.0708,6.54844 h 3.16198 3.16198 l 0.0745,-3.10885 0.0745,-3.10886 h 3.175 3.175 v 3.175 3.175 l -3.10101,0.0745 -3.10101,0.0745 -0.074,3.36511 -0.074,3.36511 -3.24115,0.0743 -3.24114,0.0743 v 2.88337 c 0,3.7643 0.0494,3.71493 -3.71492,3.71493 h -2.88338 l -0.0743,3.24114 -0.0743,3.24115 h -6.68089 -6.6809 l 1.7e-4,9.85573 1.6e-4,9.85573 9.85573,2.3e-4 9.85573,2.4e-4 z m 12.75509,-26.39048 c 0.18348,-0.18348 0.68545,0.18933 0.68545,0.50909 0,0.17544 -0.15181,0.15537 -0.40327,-0.0533 -0.2218,-0.18408 -0.34878,-0.38917 -0.28218,-0.45577 z m 0.81774,-3.37538 v -3.175 h 3.175005 3.175 l 0.0756,2.89341 c 0.0416,1.59138 0.0141,3.05369 -0.0611,3.24959 -0.10616,0.27664 -0.83203,0.33951 -3.2506,0.28158 l -3.113925,-0.0746 z m 32.676055,16.5446 v -6.34186 l -3.24115,-0.0743 -3.24114,-0.0743 -0.0743,-3.24114 -0.0743,-3.24115 h -3.15846 -3.15846 l -0.0745,3.10886 -0.0745,3.10885 -6.41614,0.0709 -6.41615,0.0708 v 3.16568 3.16567 l 6.54844,0.0708 6.54843,0.0708 0.0743,3.24114 0.0743,3.24115 h 6.34186 6.34186 z m -9.59115,-20.31383 2.71198,-0.0857 v -2.48265 c 0,-1.36545 0.0723,-2.67098 0.1606,-2.90116 0.14076,-0.36682 -0.21876,-0.41851 -2.91042,-0.41851 h -3.07101 v 3.0427 c 0,1.67349 0.0893,3.0176 0.19843,2.98691 0.10914,-0.0307 1.41883,-0.0944 2.91042,-0.14155 z m 6.61458,-6.61458 2.71198,-0.0857 v -2.48264 c 0,-1.36546 0.0723,-2.67098 0.1606,-2.90116 0.14076,-0.36682 -0.21875,-0.41852 -2.91041,-0.41852 h -3.07102 v 3.04271 c 0,1.67349 0.0893,3.0176 0.19844,2.98691 0.10914,-0.0307 1.41883,-0.0944 2.91041,-0.14155 z m 6.61459,-6.61458 2.71198,-0.0858 v -2.48265 c 0,-1.36545 0.0723,-2.67097 0.1606,-2.90116 0.14076,-0.36677 -0.21876,-0.41846 -2.91042,-0.41846 h -3.07102 v 3.04271 c 0,1.67349 0.0893,3.0176 0.19844,2.9869 0.10914,-0.0307 1.41883,-0.0944 2.91042,-0.14154 z m -23.48148,-2.77922 2.7e-4,-2.97656 -2.84457,0.0908 c -1.56451,0.0499 -2.86323,0.10948 -2.88604,0.13229 -0.0228,0.0228 -0.0823,1.32153 -0.1323,2.88604 l -0.0908,2.84457 2.97656,-3e-4 2.97657,-3e-4 2.6e-4,-2.97656 z m 30.07922,-3.83518 2.69513,-0.0856 0.083,-2.79221 c 0.0456,-1.53571 0.0334,-2.84131 -0.0273,-2.90134 -0.0606,-0.06 -1.40008,-0.10915 -2.97656,-0.10915 h -2.86632 v 3.04271 c 0,1.67349 0.0893,3.0176 0.19844,2.98691 0.10914,-0.0307 1.41125,-0.0943 2.89357,-0.14136 z m -23.46463,-2.7794 2.6e-4,-2.97656 -2.84457,0.0908 c -1.56451,0.0499 -2.86323,0.10949 -2.88604,0.1323 -0.0228,0.0228 -0.0823,1.32153 -0.13229,2.88604 l -0.0908,2.84457 2.97657,-3e-4 2.97656,-3e-4 2.6e-4,-2.97656 z m 30.09606,-3.83537 2.71197,-0.0857 v -2.48265 c 0,-1.36545 0.0723,-2.67097 0.1606,-2.90115 0.14076,-0.36682 -0.21875,-0.41852 -2.91041,-0.41852 h -3.07102 v 3.04271 c 0,1.67349 0.0893,3.0176 0.19844,2.98691 0.10914,-0.0307 1.41883,-0.0944 2.91042,-0.14155 z m -23.48148,-2.77922 2.6e-4,-2.97656 -2.84457,0.0908 c -1.56451,0.0499 -2.86323,0.10948 -2.88604,0.13229 -0.0228,0.0228 -0.0823,1.32153 -0.13229,2.88604 l -0.0908,2.84457 2.97656,-3e-4 2.97656,-2.9e-4 2.7e-4,-2.97657 z m 30.09606,-3.83536 2.71198,-0.0858 v -2.48265 c 0,-1.36545 0.0723,-2.67098 0.1606,-2.90116 0.14076,-0.36682 -0.21876,-0.41851 -2.91042,-0.41851 h -3.07102 v 3.0427 c 0,1.67349 0.0893,3.0176 0.19844,2.98691 0.10914,-0.0307 1.41883,-0.0944 2.91042,-0.14154 z m -23.53925,-2.74879 -0.0748,-2.94614 -2.77231,0.0519 c -1.52476,0.0286 -2.79358,0.0744 -2.81959,0.10187 -0.026,0.0275 -0.0882,1.32998 -0.13812,2.89449 l -0.0908,2.84457 2.98523,-3e-4 2.98523,-3e-4 z m 30.15383,-3.87614 2.71198,-0.0754 v -2.48264 c 0,-1.36546 0.0723,-2.67098 0.1606,-2.90116 0.14076,-0.36682 -0.21875,-0.41852 -2.91042,-0.41852 h -3.07101 v 2.8948 c 0,1.59215 0.0893,2.9316 0.19844,2.97657 0.10914,0.045 1.41882,0.0478 2.91041,0.006 z m -23.48147,-2.76887 2.6e-4,-2.97657 -2.84457,0.0908 c -1.56451,0.0499 -2.86323,0.10948 -2.88604,0.13229 -0.0228,0.0228 -0.0823,1.32153 -0.13229,2.88605 l -0.0908,2.84456 2.97656,-2.9e-4 2.97656,-3e-4 z m 33.3372,-13.29532 v -9.92187 h -9.92187 c -6.4382,0 -9.92188,0.0929 -9.92188,0.26458 0,0.14552 0.1296,0.26458 0.28799,0.26458 0.19543,0 0.25921,0.92422 0.19844,2.87552 l -0.0896,2.87552 6.35,0.23333 6.35,0.23334 0.23334,6.35 0.23334,6.35 2.87551,-0.0895 c 1.9513,-0.0608 2.87552,0.003 2.87552,0.19844 0,0.15839 0.11906,0.28799 0.26458,0.28799 0.17169,0 0.26459,-3.48368 0.26459,-9.92188 z m -26.72262,6.68073 2.7e-4,-2.97656 -2.84457,0.0908 c -1.56452,0.05 -2.86324,0.10948 -2.88605,0.13229 -0.0228,0.0228 -0.0823,1.32153 -0.13229,2.88604 l -0.0908,2.84457 2.97657,-3e-4 2.97656,-2.9e-4 z m 6.61459,-6.60592 2.9e-4,-2.98523 -2.84457,0.0908 c -1.56451,0.05 -2.86703,0.11211 -2.89449,0.13812 -0.0275,0.026 -0.0733,1.29483 -0.10186,2.8196 l -0.052,2.7723 2.94613,0.0748 2.94614,0.0748 z"
           style="fill:#957940;stroke-width:1" />
        <path
           inkscape:connector-curvature="0"
           id="path4502"
           d="m 84.401025,214.53514 c -0.0883,-0.23018 -0.1606,-3.20674 -0.1606,-6.61458 v -6.19607 h -2.8575 c -1.86972,0 -2.96725,-0.10975 -3.175,-0.3175 -0.20775,-0.20775 -0.3175,-1.30528 -0.3175,-3.175 v -2.8575 h -6.19607 c -3.40784,0 -6.3844,-0.0723 -6.61458,-0.1606 -0.37706,-0.14469 -0.41852,0.82502 -0.41852,9.78958 v 9.95019 h 9.95019 c 8.96456,0 9.93427,-0.0415 9.78958,-0.41852 z m 46.141495,-19.41709 v -6.34186 l -3.24115,-0.0743 -3.24114,-0.0743 -0.0743,-3.24114 -0.0743,-3.24115 h -3.15846 -3.15846 l -0.0745,3.10886 -0.0745,3.10885 -6.41614,0.0709 -6.41615,0.0708 v 3.16568 3.16567 l 6.54844,0.0708 6.54843,0.0708 0.0743,3.24114 0.0743,3.24115 h 6.34186 6.34186 z m -39.863905,6.16547 c 0.097,-0.097 0.17639,-1.52576 0.17639,-3.175 v -2.99861 h -3.175 -3.175 v 3.175 3.175 h 2.99861 c 1.64924,0 3.07799,-0.0794 3.175,-0.17639 z M 84.387465,194.77 c 0.0754,-0.19653 0.10295,-1.59943 0.0612,-3.11756 l -0.0759,-2.76024 h -3.04271 -3.0427 v 3.04271 3.04271 l 2.98152,0.0748 c 2.31248,0.0581 3.01229,-0.005 3.11864,-0.28247 z m 12.90574,-0.10107 c 0.097,-0.097 0.17639,-1.52576 0.17639,-3.175 v -2.99861 h -3.175 -3.175 v 3.175 3.175 h 2.99861 c 1.64924,0 3.07799,-0.0794 3.175,-0.17639 z m -6.29115,-6.51351 c 0.0754,-0.19653 0.10295,-1.59944 0.0612,-3.11757 l -0.0759,-2.76024 h -3.04271 -3.04271 v 3.04271 3.04271 l 2.98152,0.0749 c 2.31249,0.0581 3.01229,-0.005 3.11865,-0.28247 z m 13.404455,-3.03353 0.0745,-3.10886 6.41614,-0.0709 6.41615,-0.0709 v -3.30259 -3.30258 h -6.16479 c -4.44206,0 -6.25352,-0.0887 -6.48229,-0.3175 -0.22876,-0.22876 -0.3175,-2.03848 -0.3175,-6.47439 v -6.15689 l -3.37344,-0.074 -3.373445,-0.074 -0.0742,-3.23307 -0.0742,-3.23306 -3.23307,-0.0742 -3.23306,-0.0742 -0.0743,-3.24115 -0.0743,-3.24115 h -6.34186 -6.34186 v 6.34186 6.34186 l 3.24115,0.0743 3.24115,0.0743 0.0708,6.54843 0.0708,6.54844 h 3.16198 3.16198 l 0.0745,-3.10885 0.0745,-3.10886 h 3.175 3.175 v 3.175 3.175 l -3.10885,0.0746 -3.10886,0.0745 v 3.2905 3.2905 l 3.10886,0.0745 3.10885,0.0745 0.0745,3.10886 0.0745,3.10885 h 3.290505 3.2905 z m -6.540045,-6.54844 v -3.175 h 3.175005 3.175 l 0.0756,2.89341 c 0.0416,1.59138 0.0141,3.05369 -0.0611,3.24959 -0.10616,0.27664 -0.83203,0.33951 -3.2506,0.28158 l -3.113925,-0.0746 z m 23.084905,-3.76923 2.71198,-0.0857 v -2.48265 c 0,-1.36545 0.0723,-2.67098 0.1606,-2.90116 0.14076,-0.36682 -0.21876,-0.41851 -2.91042,-0.41851 h -3.07101 v 3.0427 c 0,1.67349 0.0893,3.0176 0.19843,2.98691 0.10914,-0.0307 1.41883,-0.0944 2.91042,-0.14155 z m 6.61458,-6.61458 2.71198,-0.0857 v -2.48264 c 0,-1.36546 0.0723,-2.67098 0.1606,-2.90116 0.14076,-0.36682 -0.21875,-0.41852 -2.91041,-0.41852 h -3.07102 v 3.04271 c 0,1.67349 0.0893,3.0176 0.19844,2.98691 0.10914,-0.0307 1.41883,-0.0944 2.91041,-0.14155 z m 6.61459,-6.61458 2.71198,-0.0858 v -2.48265 c 0,-1.36545 0.0723,-2.67097 0.1606,-2.90116 0.14076,-0.36677 -0.21876,-0.41846 -2.91042,-0.41846 h -3.07102 v 3.04271 c 0,1.67349 0.0893,3.0176 0.19844,2.9869 0.10914,-0.0307 1.41883,-0.0944 2.91042,-0.14154 z m -23.48148,-2.77922 2.7e-4,-2.97656 -2.84457,0.0908 c -1.56451,0.0499 -2.86323,0.10948 -2.88604,0.13229 -0.0228,0.0228 -0.0823,1.32153 -0.1323,2.88604 l -0.0908,2.84457 2.97656,-3e-4 2.97657,-3e-4 2.6e-4,-2.97656 z m 30.07922,-3.83518 2.69514,-0.0856 0.083,-2.79221 c 0.0456,-1.53571 0.0334,-2.84131 -0.0273,-2.90134 -0.0606,-0.06 -1.40009,-0.10915 -2.97657,-0.10915 h -2.86632 v 3.04271 c 0,1.67349 0.0893,3.0176 0.19844,2.98691 0.10914,-0.0307 1.41125,-0.0943 2.89358,-0.14136 z m -23.46463,-2.7794 2.6e-4,-2.97656 -2.84457,0.0908 c -1.56451,0.0499 -2.86323,0.10949 -2.88604,0.1323 -0.0228,0.0228 -0.0823,1.32153 -0.13229,2.88604 l -0.0908,2.84457 2.97657,-3e-4 2.97656,-3e-4 2.6e-4,-2.97656 z m 30.09606,-3.83537 2.71198,-0.0857 v -2.48265 c 0,-1.36545 0.0723,-2.67097 0.16059,-2.90115 0.14077,-0.36682 -0.21875,-0.41852 -2.91041,-0.41852 h -3.07102 v 3.04271 c 0,1.67349 0.0893,3.0176 0.19844,2.98691 0.10914,-0.0307 1.41883,-0.0944 2.91042,-0.14155 z m -23.48148,-2.77922 2.6e-4,-2.97656 -2.84457,0.0908 c -1.56451,0.0499 -2.86323,0.10948 -2.88604,0.13229 -0.0228,0.0228 -0.0823,1.32153 -0.13229,2.88604 l -0.0908,2.84457 2.97656,-3e-4 2.97656,-2.9e-4 2.7e-4,-2.97657 z m 30.09606,-3.83536 2.71198,-0.0858 v -2.48265 c 0,-1.36545 0.0723,-2.67098 0.1606,-2.90116 0.14076,-0.36682 -0.21876,-0.41851 -2.91042,-0.41851 h -3.07101 v 3.0427 c 0,1.67349 0.0893,3.0176 0.19843,2.98691 0.10914,-0.0307 1.41883,-0.0944 2.91042,-0.14154 z m -23.53925,-2.74879 -0.0748,-2.94614 -2.77231,0.0519 c -1.52476,0.0286 -2.79358,0.0744 -2.81959,0.10187 -0.026,0.0275 -0.0882,1.32998 -0.13812,2.89449 l -0.0908,2.84457 2.98523,-3e-4 2.98523,-3e-4 z m 30.15383,-3.87614 2.71198,-0.0754 v -2.48264 c 0,-1.36546 0.0723,-2.67098 0.1606,-2.90116 0.14076,-0.36682 -0.21875,-0.41852 -2.91041,-0.41852 h -3.07102 v 2.8948 c 0,1.59215 0.0893,2.9316 0.19844,2.97657 0.10914,0.045 1.41883,0.0478 2.91041,0.006 z m -23.48147,-2.76887 2.6e-4,-2.97657 -2.84457,0.0908 c -1.56451,0.0499 -2.86323,0.10948 -2.88604,0.13229 -0.0228,0.0228 -0.0823,1.32153 -0.13229,2.88605 l -0.0908,2.84456 2.97656,-2.9e-4 2.97656,-3e-4 z m 33.3372,-13.29532 v -9.92187 h -9.92187 c -6.4382,0 -9.92188,0.0929 -9.92188,0.26458 0,0.14552 0.1296,0.26458 0.28799,0.26458 0.19543,0 0.25921,0.92422 0.19844,2.87552 l -0.0896,2.87552 6.35,0.23333 6.35,0.23334 0.23334,6.35 0.23334,6.35 2.87551,-0.0895 c 1.9513,-0.0608 2.87552,0.003 2.87552,0.19844 0,0.15839 0.11906,0.28799 0.26458,0.28799 0.17169,0 0.26459,-3.48368 0.26459,-9.92188 z m -26.72262,6.68073 2.7e-4,-2.97656 -2.84457,0.0908 c -1.56452,0.05 -2.86324,0.10948 -2.88605,0.13229 -0.0228,0.0228 -0.0823,1.32153 -0.13229,2.88604 l -0.0908,2.84457 2.97657,-3e-4 2.97656,-2.9e-4 z m 6.61459,-6.60592 2.9e-4,-2.98523 -2.84457,0.0908 c -1.56451,0.05 -2.86703,0.11211 -2.89449,0.13812 -0.0275,0.026 -0.0733,1.29483 -0.10186,2.8196 l -0.052,2.7723 2.94613,0.0748 2.94614,0.0748 z"
           style="fill:#000000;stroke-width:1" />
        <path
           inkscape:connector-curvature="0"
           id="path4500"
           d="m 84.505005,214.68907 c 0,-0.14552 -0.11906,-0.26458 -0.26458,-0.26458 -0.16888,0 -0.26458,-2.24896 -0.26458,-6.21771 v -6.21771 h -3.03431 -3.03432 l -0.0745,3.10886 -0.0745,3.10885 h -3.175 -3.175 v -3.175 -3.175 l 3.10885,-0.0745 3.10886,-0.0745 v -3.03432 -3.03431 h -6.21771 c -3.96875,0 -6.21771,-0.0957 -6.21771,-0.26458 0,-0.14552 -0.11906,-0.26458 -0.26458,-0.26458 -0.17169,0 -0.26459,3.48368 -0.26459,9.92187 v 9.92188 h 9.92188 c 6.43819,0 9.92187,-0.0929 9.92187,-0.26459 z m 6.17361,-13.40555 c 0.097,-0.097 0.17639,-1.52576 0.17639,-3.175 v -2.99861 h -3.175 -3.175 v 3.175 3.175 h 2.99861 c 1.64924,0 3.07799,-0.0794 3.175,-0.17639 z m 39.599315,-6.17361 v -6.08542 h -3.03404 -3.03404 l -0.0748,2.97656 -0.0748,2.97657 -2.97657,0.0748 -2.97656,0.0748 v 3.03404 3.03404 h 6.08542 6.08541 z M 84.387465,194.77 c 0.0754,-0.19653 0.10295,-1.59943 0.0612,-3.11756 l -0.0759,-2.76024 h -3.04271 -3.0427 v 3.04271 3.04271 l 2.98152,0.0748 c 2.31248,0.0581 3.01229,-0.005 3.11864,-0.28247 z m 12.90574,-0.10107 c 0.097,-0.097 0.17639,-1.52576 0.17639,-3.175 v -2.99861 h -3.175 -3.175 v 3.175 3.175 h 2.99861 c 1.64924,0 3.07799,-0.0794 3.175,-0.17639 z m 20.227535,-2.93246 -0.0751,-2.84427 -6.28385,-0.0709 -6.28386,-0.0709 v 2.9152 2.91521 h 6.35895 6.35895 z m 6.14261,-6.2749 v -3.05166 h -2.91908 -2.91908 l 0.0748,2.97656 0.0748,2.97656 2.84427,0.0751 2.84427,0.0751 z m -32.661295,2.69385 c 0.0754,-0.19653 0.10295,-1.59944 0.0612,-3.11757 l -0.0759,-2.76024 h -3.04271 -3.04271 v 3.04271 3.04271 l 2.98152,0.0749 c 2.31249,0.0581 3.01229,-0.005 3.11865,-0.28247 z m 13.024935,-3.03353 -0.0751,-2.84428 -2.9599,-0.0747 -2.959905,-0.0747 -0.0828,2.91947 -0.0828,2.91947 3.117815,-5.3e-4 3.1178,-5.3e-4 -0.0751,-2.84427 z m -8.996225,-3.44923 2.45597,-0.0766 -0.0747,-2.96652 -0.0747,-2.96652 -2.84427,-0.0751 -2.84428,-0.0751 v 3.12764 c 0,2.80592 0.0476,3.12668 0.46303,3.1182 0.25466,-0.005 1.5682,-0.0439 2.91898,-0.086 z m 22.018005,-3.09921 v -3.05246 l -6.15157,0.071 -6.15156,0.071 v 2.91042 2.91041 l 6.15156,0.071 6.15157,0.071 z m -13.14098,-3.74827 c 0.097,-0.097 0.17639,-2.89498 0.17639,-6.21771 v -6.04132 h -3.20445 -3.204465 l 0.19238,6.01928 c 0.10581,3.3106 0.24515,6.10856 0.30965,6.2177 0.14499,0.24533 5.486665,0.26589 5.730495,0.022 z m -12.926785,-6.15459 c 0.10633,-3.33652 0.11445,-6.19402 0.018,-6.35 -0.10741,-0.17379 -1.2962,-0.2836 -3.07008,-0.2836 h -2.8948 v 6.35 6.35 h 2.87675 2.87676 z m 6.22401,-9.66765 v -3.05137 h -3.05138 -3.05137 l 0.0748,2.97656 0.0748,2.97657 2.97656,0.0748 2.97657,0.0748 z m -12.64253,-0.47168 0.0748,-2.97656 2.97656,-0.0748 2.97656,-0.0748 v -3.03407 -3.03404 h -6.08542 -6.08541 v 6.08541 6.08542 h 3.03404 3.03404 z"
           style="fill:#666666;stroke-width:1" />
        <path
           inkscape:connector-curvature="0"
           id="path4498"
           d="m 90.678615,201.28352 c 0.097,-0.097 0.17639,-1.52576 0.17639,-3.175 v -2.99861 h -3.175 -3.175 v 3.175 3.175 h 2.99861 c 1.64924,0 3.07799,-0.0794 3.175,-0.17639 z M 84.387465,194.77 c 0.0754,-0.19653 0.10295,-1.59943 0.0612,-3.11756 l -0.0759,-2.76024 h -3.04271 -3.0427 v 3.04271 3.04271 l 2.98152,0.0748 c 2.31248,0.0581 3.01229,-0.005 3.11864,-0.28247 z m 12.90574,-0.10107 c 0.097,-0.097 0.17639,-1.52576 0.17639,-3.175 v -2.99861 h -3.175 -3.175 v 3.175 3.175 h 2.99861 c 1.64924,0 3.07799,-0.0794 3.175,-0.17639 z m -6.29115,-6.51351 c 0.0754,-0.19653 0.10295,-1.59944 0.0612,-3.11757 l -0.0759,-2.76024 h -3.04271 -3.04271 v 3.04271 3.04271 l 2.98152,0.0749 c 2.31249,0.0581 3.01229,-0.005 3.11865,-0.28247 z"
           style="fill:#473614;stroke-width:1" />
      </g>
    </g>
  </g>
</svg>
